<svg width="40" height="40" viewBox="0 0 40 40" fill="none" xmlns="http://www.w3.org/2000/svg">
<path d="M4.55078 21.2515C4.27156 20.8933 4.11922 20.4525 4.11769 19.9983C4.11615 19.5441 4.26551 19.1022 4.54231 18.7421C6.68219 15.9362 12.4676 9.41177 20.0001 9.41177C27.433 9.41177 33.2735 15.932 35.443 18.74C35.7234 19.1002 35.8757 19.5436 35.8757 20C35.8757 20.4565 35.7234 20.8999 35.443 21.26C33.2735 24.068 27.433 30.5882 20.0001 30.5882C12.5671 30.5882 6.71502 24.0532 4.55078 21.2515Z" stroke="#FF4300" stroke-width="3" stroke-miterlimit="10" stroke-linecap="square"/>
<path d="M20 25C22.7614 25 25 22.7615 25 20C25 17.2386 22.7614 15 20 15C17.2386 15 15 17.2386 15 20C15 22.7615 17.2386 25 20 25Z" stroke="#FF4300" stroke-width="3" stroke-miterlimit="10" stroke-linecap="square"/>
</svg>
